<?xml version="1.0" encoding="utf-8"?>
<!-- Generator: Adobe Illustrator 15.1.0, SVG Export Plug-In . SVG Version: 6.00 Build 0)  -->
<!DOCTYPE svg PUBLIC "-//W3C//DTD SVG 1.1//EN" "http://www.w3.org/Graphics/SVG/1.1/DTD/svg11.dtd">
<svg version="1.1" id="Layer_1" xmlns="http://www.w3.org/2000/svg" xmlns:xlink="http://www.w3.org/1999/xlink" x="0px" y="0px"
	 width="128px" height="128px" viewBox="0 0 128 128" enable-background="new 0 0 128 128" xml:space="preserve">
<path fill="#FFFFFF" d="M8.394,119.606C5.465,116.678,4,112.839,4,109s1.465-7.678,4.394-10.607l23.454-23.454
	C28.438,68.281,26.5,60.745,26.5,52.75C26.5,25.826,48.326,4,75.25,4S124,25.826,124,52.75s-21.826,48.75-48.75,48.75
	c-7.994,0-15.531-1.938-22.189-5.348l-23.454,23.454C23.749,125.465,14.251,125.465,8.394,119.606z M49,52.75
	C49,67.247,60.753,79,75.25,79c14.498,0,26.25-11.753,26.25-26.25c0-14.498-11.752-26.25-26.25-26.25
	C60.753,26.5,49,38.252,49,52.75z"/>
</svg>
