<?xml version="1.0" encoding="utf-8"?>
<!-- Generator: Adobe Illustrator 17.0.0, SVG Export Plug-In . SVG Version: 6.00 Build 0)  -->
<!DOCTYPE svg PUBLIC "-//W3C//DTD SVG 1.1//EN" "http://www.w3.org/Graphics/SVG/1.1/DTD/svg11.dtd">
<svg version="1.1" id="Layer_1" xmlns="http://www.w3.org/2000/svg" xmlns:xlink="http://www.w3.org/1999/xlink" x="0px" y="0px"
	 width="600px" height="320.667px" viewBox="0 0 600 320.667" enable-background="new 0 0 600 320.667" xml:space="preserve">
<g>
	<g>
		<path fill="#FFFFFF" d="M92.236,148.555h-25.71L13.029,15.282h32.136l34.595,93.196l34.594-93.196h31.381L92.236,148.555z"/>
		<path fill="#FFFFFF" d="M198.471,147.609v-10.965c-6.995,7.751-16.636,12.855-30.625,12.855
			c-19.093,0-34.783-10.964-34.783-31.003v-0.378c0-22.117,16.824-32.325,40.832-32.325c10.208,0,17.581,1.701,24.765,4.158V88.25
			c0-11.909-7.373-18.525-21.739-18.525c-10.965,0-18.715,2.079-27.979,5.482l-7.184-21.929c11.154-4.915,22.118-8.129,39.32-8.129
			c31.381,0,45.181,16.258,45.181,43.668v58.791L198.471,147.609L198.471,147.609z M199.037,106.777
			c-4.915-2.269-11.342-3.781-18.337-3.781c-12.288,0-19.85,4.915-19.85,13.989v0.378c0,7.751,6.428,12.288,15.69,12.288
			c13.423,0,22.496-7.373,22.496-17.771v-5.103H199.037z"/>
		<path fill="#FFFFFF" d="M240.519,147.609V9.61h28.733v137.999H240.519z"/>
		<path fill="#FFFFFF" d="M283.512,147.609V9.61h28.734v137.999H283.512z"/>
		<path fill="#FFFFFF" d="M423.561,106.967h-70.51c2.834,13.043,11.908,19.849,24.764,19.849c9.641,0,16.637-3.024,24.574-10.397
			l16.447,14.557c-9.451,11.72-23.063,18.903-41.398,18.903c-30.436,0-52.932-21.361-52.932-52.364v-0.377
			c0-28.924,20.604-52.743,50.096-52.743c33.836,0,49.338,26.277,49.338,55.012v0.377
			C423.939,102.619,423.75,104.319,423.561,106.967z M374.602,67.457c-11.912,0-19.66,8.507-21.93,21.551h43.289
			C394.262,76.152,386.699,67.457,374.602,67.457z"/>
		<path fill="#FFFFFF" d="M490.012,150.067c-7.75,20.605-16.068,28.355-33.271,28.355c-10.396,0-18.148-2.646-25.52-6.994
			l9.641-20.794c3.781,2.269,8.506,3.971,12.289,3.971c4.914,0,7.561-1.513,10.018-6.616l-39.7-101.705h30.436l23.064,69l22.117-69
			h29.869L490.012,150.067z"/>
	</g>
	<g>
		<path fill="#FFFFFF" d="M78.764,305.723c-37.777,0-65.734-30.033-65.734-68.002v-0.377c0-37.398,27.957-68.375,66.113-68.375
			c23.61,0,37.776,8.686,51.376,21.154l-6.989,7.178c-11.521-11.145-24.741-19.455-44.576-19.455
			c-31.734,0-55.723,25.877-55.723,59.121v0.377c0,33.436,24.367,59.502,55.912,59.502c19.077,0,32.11-7.367,45.52-20.588
			l6.611,6.422C117.298,296.467,102.187,305.723,78.764,305.723z"/>
		<path fill="#FFFFFF" d="M217.488,303.456v-57.232c0-19.832-11.146-32.867-30.6-32.867c-18.89,0-33.435,14.355-33.435,34.377
			v55.723H144.2V165.569h9.254v59.498c6.424-11.332,17.19-20.211,34.757-20.211c24.367,0,38.534,16.623,38.534,39.666v58.934
			H217.488z"/>
		<path fill="#FFFFFF" d="M319.797,303.456v-17.943c-6.424,11.334-17.191,20.211-34.758,20.211
			c-24.367,0-38.532-16.623-38.532-39.668v-58.932h9.255v57.234c0,19.832,11.145,32.865,30.6,32.865
			c18.889,0,33.436-14.355,33.436-34.379v-55.721h9.254v96.332h-9.255V303.456z"/>
		<path fill="#FFFFFF" d="M402.777,215.811c-22.289,0-41.746,16.813-41.746,48.168v39.477h-9.254v-96.332h9.254v27.389
			c7.559-17.189,23.613-29.656,42.691-28.9v10.199h-0.945V215.811z"/>
		<path fill="#FFFFFF" d="M452.475,305.723c-27.766,0-49.111-23.043-49.111-50.055v-0.377c0-27.012,21.535-50.436,49.111-50.436
			c18.133,0,29.467,8.311,38.535,17.756l-6.611,6.799c-8.311-8.498-17.756-15.865-32.113-15.865
			c-21.908,0-38.91,18.322-38.91,41.365v0.381c0,23.232,17.566,41.742,39.67,41.742c13.598,0,24.176-6.988,32.297-16.053
			l6.422,5.664C481.941,297.79,470.232,305.723,452.475,305.723z"/>
		<path fill="#FFFFFF" d="M577.713,303.456v-57.232c0-19.832-11.145-32.867-30.6-32.867c-18.889,0-33.434,14.355-33.434,34.377
			v55.723h-9.254V165.569h9.254v59.498c6.424-11.332,17.189-20.211,34.756-20.211c24.365,0,38.535,16.623,38.535,39.666v58.934
			H577.713z"/>
	</g>
</g>
</svg>
