<?xml version="1.0" encoding="utf-8"?>
<!-- Generator: Adobe Illustrator 17.0.0, SVG Export Plug-In . SVG Version: 6.00 Build 0)  -->
<!DOCTYPE svg PUBLIC "-//W3C//DTD SVG 1.1//EN" "http://www.w3.org/Graphics/SVG/1.1/DTD/svg11.dtd">
<svg version="1.1" id="Layer_1" xmlns="http://www.w3.org/2000/svg" xmlns:xlink="http://www.w3.org/1999/xlink" x="0px" y="0px"
	 width="262.416px" height="40px" viewBox="0 3.5 262.416 40" enable-background="new 0 3.5 262.416 40" xml:space="preserve">
<g>
	<g>
		<path fill="#FFFFFF" d="M18.563,36.282h-6.026L0,5.047h7.531l8.108,21.843l8.108-21.843h7.355L18.563,36.282z"/>
		<path fill="#FFFFFF" d="M43.46,36.06v-2.57c-1.639,1.817-3.899,3.013-7.177,3.013c-4.475,0-8.151-2.57-8.151-7.266v-0.089
			c0-5.184,3.942-7.576,9.569-7.576c2.392,0,4.121,0.399,5.804,0.974v-0.399c0-2.791-1.728-4.342-5.095-4.342
			c-2.57,0-4.387,0.487-6.557,1.285l-1.683-5.14c2.614-1.151,5.183-1.905,9.214-1.905c7.355,0,10.589,3.81,10.589,10.234v13.779
			H43.46V36.06z M43.593,26.491c-1.152-0.532-2.658-0.886-4.297-0.886c-2.88,0-4.653,1.15-4.653,3.278v0.089
			c0,1.816,1.507,2.88,3.677,2.88c3.145,0,5.273-1.728,5.273-4.165V26.491z"/>
		<path fill="#FFFFFF" d="M53.315,36.06V3.718h6.734v32.343L53.315,36.06L53.315,36.06z"/>
		<path fill="#FFFFFF" d="M63.392,36.06V3.718h6.734v32.343L63.392,36.06L63.392,36.06z"/>
		<path fill="#FFFFFF" d="M96.214,26.536H79.688c0.665,3.055,2.791,4.651,5.804,4.651c2.259,0,3.899-0.709,5.759-2.436l3.854,3.411
			c-2.215,2.746-5.404,4.429-9.702,4.429c-7.132,0-12.405-5.006-12.405-12.271v-0.088c0-6.779,4.829-12.362,11.74-12.362
			c7.93,0,11.564,6.159,11.564,12.893v0.088C96.303,25.515,96.258,25.915,96.214,26.536z M84.739,17.276
			c-2.791,0-4.608,1.993-5.139,5.051h10.145C89.347,19.313,87.575,17.276,84.739,17.276z"/>
		<path fill="#FFFFFF" d="M111.787,36.637c-1.816,4.829-3.766,6.646-7.798,6.646c-2.437,0-4.253-0.621-5.98-1.639l2.259-4.874
			c0.886,0.532,1.993,0.932,2.88,0.932c1.152,0,1.772-0.356,2.348-1.551l-9.303-23.836h7.132l5.406,16.171l5.183-16.171h7
			L111.787,36.637z"/>
	</g>
	<g>
		<path fill="#FFFFFF" d="M143.311,36.567c-8.854,0-15.406-7.038-15.406-15.936v-0.088c0-8.765,6.552-16.025,15.495-16.025
			c5.533,0,8.853,2.036,12.04,4.958l-1.637,1.682c-2.701-2.612-5.798-4.559-10.448-4.559c-7.437,0-13.059,6.064-13.059,13.856v0.088
			c0,7.836,5.711,13.945,13.104,13.945c4.47,0,7.526-1.727,10.667-4.826l1.549,1.506C152.342,34.399,148.8,36.567,143.311,36.567z"
			/>
		<path fill="#FFFFFF" d="M175.823,36.037V22.624c0-4.648-2.612-7.703-7.171-7.703c-4.428,0-7.836,3.364-7.836,8.056v13.06h-2.168
			V3.722h2.168v13.945c1.506-2.657,4.028-4.737,8.145-4.737c5.711,0,9.031,3.896,9.031,9.296v13.812H175.823z"/>
		<path fill="#FFFFFF" d="M199.799,36.037v-4.207c-1.505,2.657-4.028,4.737-8.146,4.737c-5.709,0-9.03-3.894-9.03-9.296V13.46h2.168
			v13.414c0,4.647,2.611,7.703,7.172,7.703c4.427,0,7.835-3.365,7.835-8.058V13.46h2.168v22.577H199.799z"/>
		<path fill="#FFFFFF" d="M219.248,15.496c-5.226,0-9.785,3.941-9.785,11.289v9.252h-2.168V13.46h2.168v6.419
			c1.77-4.028,5.533-6.95,10.005-6.773v2.39L219.248,15.496L219.248,15.496z"/>
		<path fill="#FFFFFF" d="M230.895,36.567c-6.506,0-11.51-5.4-11.51-11.73v-0.089c0-6.33,5.047-11.82,11.51-11.82
			c4.249,0,6.907,1.948,9.031,4.161l-1.549,1.594c-1.949-1.992-4.163-3.718-7.526-3.718c-5.135,0-9.119,4.295-9.119,9.694v0.089
			c0,5.446,4.117,9.784,9.297,9.784c3.187,0,5.666-1.637,7.569-3.762l1.505,1.328C237.801,34.71,235.057,36.567,230.895,36.567z"/>
		<path fill="#FFFFFF" d="M260.247,36.037V22.624c0-4.648-2.612-7.703-7.172-7.703c-4.427,0-7.836,3.364-7.836,8.056v13.06h-2.168
			V3.722h2.168v13.945c1.505-2.657,4.028-4.737,8.146-4.737c5.71,0,9.031,3.896,9.031,9.296v13.812H260.247z"/>
	</g>
</g>
</svg>
